<?xml version="1.0" encoding="UTF-8"?>
<!DOCTYPE svg PUBLIC "-//W3C//DTD SVG 1.1//EN" "http://www.w3.org/Graphics/SVG/1.1/DTD/svg11.dtd">
<!-- Creator: CorelDRAW 2020 (64-Bit) -->
<svg xmlns="http://www.w3.org/2000/svg" xml:space="preserve" width="183.207mm" height="141.592mm" version="1.1" style="shape-rendering:geometricPrecision; text-rendering:geometricPrecision; image-rendering:optimizeQuality; fill-rule:evenodd; clip-rule:evenodd"
viewBox="0 0 211264.1 163275.7"
 xmlns:xlink="http://www.w3.org/1999/xlink"
 xmlns:xodm="http://www.corel.com/coreldraw/odm/2003">
 <defs>
  <style type="text/css">
   <![CDATA[
    .fil0 {fill:#F08519}
   ]]>
  </style>
 </defs>
 <g id="Layer_x0020_1">
  <metadata id="CorelCorpID_0Corel-Layer"/>
  <path class="fil0" d="M84395.7 118043.2l0 -27028.2c-10481.4,3860.8 -18203.1,8825.2 -23167.5,13238.6 -5516.9,4964.4 -8274,9377.7 -8274,14342.1 0,3309.6 1102.3,6066.8 3309.6,8274.2 2206,1654.8 5515.6,2757.2 8825.2,2757.2 3309.6,0 6619.3,-1102.4 9928.9,-2757.2 2758.4,-1654.9 6068.1,-4964.5 9377.7,-8826.6zm21512.6 -118043.2c14340.8,0 27579.4,2758.6 40266.7,7722.9 -2758.4,0 -5515.6,-552.5 -8274,-552.5 -12134.9,0 -22063.8,2758.4 -29786.7,8826.5 -7722.8,5515.7 -11583.7,12686.1 -11583.7,21512.7 0,3309.6 551.2,6619.3 1654.8,9928.9 -551.1,-552.5 -1103.6,-1103.7 -2206,-1654.9 -6619.3,-4964.4 -15445.8,-7171.7 -25925.9,-7171.7 -4413.3,0 -8825.2,552.5 -13238.6,1654.9 -551.1,0 -1103.6,0 -1654.8,0l-21512.6 0 0 46334.8 22616.3 0 0 -29786.7c3860.7,-1102.3 8274,-2206 12134.9,-2206 4413.2,0 8274,1103.7 11583.7,2758.4 2758.4,2206.1 4413.3,4412 4413.3,7170.5l0 12687.3c-19857.8,7721.7 -33648.9,14893.4 -41922.9,21512.7 -8274.2,6619.2 -12134.9,14340.8 -12134.9,22063.7 0,7722.9 2758.4,13789.8 7170.4,18203.1 4964.5,4413.2 11583.8,7170.4 19306.6,7170.4 4964.5,0 9377.7,-1102.3 13789.8,-3309.6 4964.4,-2206 9377.7,-5515.6 13791,-9928.8l0 12687.3c13238.6,2758.4 25924.5,4964.4 38060.8,5515.6 12134.9,0 22063.8,-2757.2 30337.8,-8825.2 2206,-1103.7 3309.6,-2758.4 4964.5,-3860.8 1654.8,3309.6 2758.4,6619.3 2758.4,8825.2 0,4413.3 -2207.3,8274.2 -5517,11032.6 -3860.7,2757.2 -8274,3860.8 -14340.8,3860.8 -3862.1,0 -7722.9,-551.2 -11583.7,-1654.9 -3862.1,-1654.8 -7722.9,-3309.6 -12136.3,-6068.1l0 8826.5 -100391.3 0c-10481.4,-16548.2 -16548.2,-35854.8 -16548.2,-56816.2 0,-30337.9 12686.1,-57366.1 32543.9,-76672.8 552.5,551.2 1654.8,1654.9 2758.4,2206 2758.4,2207.3 6068.1,3309.6 9928.9,3309.6 3309.6,0 6619.3,-1102.3 9377.7,-3309.6 2757.2,-1654.8 4412,-4411.9 4412,-7170.4 0,-3309.6 -1654.9,-5515.7 -4412,-7722.9 -552.5,-1102.4 -1654.8,-1654.9 -2758.4,-2206 15444.5,-9377.7 34199.9,-14893.4 54057.8,-14893.4zm0 63986.7c3309.6,4964.5 7721.6,11583.8 13238.6,18754.2 1654.8,2206.1 3309.6,4964.5 6066.8,8274.2 1103.7,1654.8 2207.2,2758.4 3309.6,4413.3 1654.8,2206 3309.6,4964.4 4964.4,7721.6 4964.5,7171.7 7171.7,12687.3 7171.7,16548.2 0,4413.2 -1654.8,8274 -5516.9,11032.5 -3309.6,2758.6 -8274.2,3860.8 -14341,3860.8 -552.5,0 -1654.8,0 -2207.2,0 -4964.5,-551.2 -8825.2,-2757.2 -9928.9,-5515.6 -1102.3,-1103.7 -2206,-3309.6 -2206,-4964.5l0 -58469.7c0,-552.5 0,-1103.7 -551.2,-1654.9zm54056.5 -49093.3c30890.3,18754.2 51299.3,52954.1 51299.3,91566.1 0,20961.4 -6066.8,40268 -16548.2,56816.2l-14893.3 0c3309.6,-4964.4 4964.4,-9928.9 4964.4,-15997 0,-9377.7 -7170.5,-23718.6 -22063.8,-44128.9 -4413.3,-6066.8 -7722.9,-10480.1 -9928.9,-13789.8 -3860.7,-6068.1 -7170.4,-11032.5 -8825.2,-14893.3 -1654.8,-3860.8 -2758.4,-7170.5 -2758.4,-10480.1 0,-3862.1 1654.8,-7171.7 5515.6,-9377.7 3309.6,-2758.4 8274,-3860.7 13791,-3860.7 3309.6,0 6066.8,551.1 9376.4,1102.3 3309.6,1103.7 6619.3,2207.3 9928.9,4413.3l0 -17099.4c-3860.8,-1654.8 -7721.7,-2758.4 -11031.3,-3309.6 -3862.1,-552.5 -7722.8,-1103.7 -11032.5,-1103.7 -12134.9,0 -22063.8,2758.6 -29786.7,8274.2 -1654.8,1103.7 -2758.4,2206 -3860.8,3309.6 -1654.8,-3860.8 -2207.2,-6619.3 -2207.2,-9377.7 0,-4412 1654.8,-7721.7 4964.4,-9928.9 3309.6,-2757.2 8274.2,-3860.8 14342.2,-3860.8 2758.4,0 6068.1,551.2 8825.2,1103.7 3309.6,1102.3 6619.3,2206 9928.9,4411.9l0 -13789.6z"/>
 </g>
</svg>
