<?xml version="1.0" encoding="UTF-8"?>
<!DOCTYPE svg PUBLIC "-//W3C//DTD SVG 1.1//EN" "http://www.w3.org/Graphics/SVG/1.1/DTD/svg11.dtd">
<!-- Creator: CorelDRAW 2020 (64-Bit) -->
<svg xmlns="http://www.w3.org/2000/svg" xml:space="preserve" width="178.337mm" height="161.286mm" version="1.1" style="shape-rendering:geometricPrecision; text-rendering:geometricPrecision; image-rendering:optimizeQuality; fill-rule:evenodd; clip-rule:evenodd"
viewBox="0 0 163178 147576.5"
 xmlns:xlink="http://www.w3.org/1999/xlink"
 xmlns:xodm="http://www.corel.com/coreldraw/odm/2003">
 <defs>
  <style type="text/css">
   <![CDATA[
    .str0 {stroke:#009B4C;stroke-width:947.8;stroke-linecap:round;stroke-linejoin:round;stroke-miterlimit:10}
    .fil3 {fill:none;fill-rule:nonzero}
    .fil1 {fill:#009B4C}
    .fil0 {fill:#F08519}
    .fil2 {fill:#009B4C;fill-rule:nonzero}
   ]]>
  </style>
 </defs>
 <g id="Layer_x0020_1">
  <metadata id="CorelCorpID_0Corel-Layer"/>
  <path class="fil0" d="M69760.5 87958l0 -14861.7c-5763.3,2122.9 -10009.1,4852.7 -12738.8,7279.4 -3033.6,2729.7 -4549.6,5156.4 -4549.6,7886.1 0,1819.8 606.1,3335.9 1819.8,4549.7 1213,909.9 3032.9,1516 4852.7,1516 1819.8,0 3639.6,-606.1 5459.4,-1516 1516.8,-910 3336.6,-2729.8 5156.5,-4853.4zm11828.9 -64907c7885.5,0 15164.9,1516.7 22141.1,4246.5 -1516.8,0 -3032.9,-303.8 -4549.6,-303.8 -6672.5,0 -12132,1516.7 -16378.5,4853.3 -4246.5,3032.8 -6369.4,6975.5 -6369.4,11828.9 0,1819.8 303,3639.7 909.9,5459.5 -303,-303.8 -606.8,-606.8 -1212.9,-910 -3639.7,-2729.7 -8493,-3943.4 -14255.6,-3943.4 -2426.7,0 -4852.6,303.8 -7279.3,909.9 -303.1,0 -606.9,0 -910,0l-11828.9 0 0 25477.6 12435.7 0 0 -16378.5c2122.9,-606.1 4549.7,-1212.9 6672.5,-1212.9 2426.7,0 4549.6,606.8 6369.4,1516.7 1516.7,1213 2426.7,2426 2426.7,3942.7l0 6976.3c-10919,4245.8 -18502.1,8189.3 -23051.7,11828.9 -4549.6,3639.7 -6672.5,7885.5 -6672.5,12132 0,4246.5 1516.7,7582.4 3942.7,10009.1 2729.7,2426.7 6369.4,3942.7 10615.9,3942.7 2729.7,0 5156.4,-606.2 7582.3,-1819.8 2729.8,-1213 5156.5,-3032.9 7583.2,-5459.5l0 6976.3c7279.3,1516.7 14254.9,2729.7 20928.1,3032.8 6672.5,0 12131.9,-1516.1 16681.6,-4852.6 1212.9,-606.9 1819.8,-1516.8 2729.7,-2122.9 909.9,1819.8 1516.8,3639.6 1516.8,4852.6 0,2426.7 -1213.7,4549.6 -3033.6,6066.4 -2122.9,1516.1 -4549.6,2122.9 -7885.5,2122.9 -2123.5,0 -4246.5,-303 -6369.4,-910 -2123.6,-909.9 -4246.5,-1819.8 -6673.2,-3336.5l0 4853.3 -55201.1 0c-5763.3,-9099.1 -9099.1,-19715.1 -9099.1,-31240.9 0,-16681.6 6975.5,-31543.3 17894.5,-42159.2 303.8,303.1 910,910 1516.8,1213 1516.8,1213.7 3336.6,1819.8 5459.5,1819.8 1819.8,0 3639.6,-606.2 5156.4,-1819.8 1516.1,-909.9 2425.9,-2425.9 2425.9,-3942.7 0,-1819.8 -909.9,-3032.8 -2425.9,-4246.5 -303.8,-606.1 -909.9,-909.9 -1516.8,-1213 8492.3,-5156.4 18805.2,-8189.2 29724.2,-8189.2zm0 35183.6c1819.8,2729.8 4245.8,6369.4 7279.4,10312.1 909.9,1213 1819.8,2729.7 3335.8,4549.6 606.9,910 1213.7,1516.8 1819.8,2426.7 910,1213 1819.8,2729.8 2729.8,4245.9 2729.7,3943.4 3943.4,6976.2 3943.4,9099.1 0,2426.7 -909.9,4549.6 -3033.5,6066.4 -1819.8,1516.7 -4549.6,2122.9 -7885.5,2122.9 -303.8,0 -909.9,0 -1213.7,0 -2729.8,-303 -4852.7,-1516.1 -5459.5,-3032.9 -606.1,-606.8 -1212.9,-1819.8 -1212.9,-2729.7l0 -32150.1c0,-303.8 0,-606.9 -303.1,-910zm29723.5 -26994.4c16985.3,10312.1 28207.4,29117.3 28207.4,50348.4 0,11525.9 -3335.9,22141.8 -9099.1,31240.9l-8189.3 0c1819.8,-2729.7 2729.7,-5459.4 2729.7,-8796.1 0,-5156.4 -3942.7,-13041.9 -12132,-24264.6 -2426.7,-3335.9 -4246.5,-5762.6 -5459.4,-7582.4 -2122.9,-3336.6 -3942.7,-6066.4 -4852.7,-8189.3 -909.9,-2122.9 -1516.7,-3942.7 -1516.7,-5762.6 0,-2123.6 909.9,-3943.5 3032.8,-5156.4 1819.8,-1516.8 4549.6,-2122.9 7583.2,-2122.9 1819.8,0 3335.8,303 5155.7,606.1 1819.8,606.8 3639.7,1213.7 5459.5,2426.7l0 -9402.2c-2122.9,-910 -4245.8,-1516.8 -6065.6,-1819.8 -2123.6,-303.8 -4246.5,-606.8 -6066.4,-606.8 -6672.5,0 -12132,1516.7 -16378.5,4549.6 -909.9,606.8 -1516.8,1212.9 -2122.9,1819.8 -909.9,-2122.9 -1213.7,-3639.7 -1213.7,-5156.5 0,-2425.9 909.9,-4245.8 2729.7,-5459.4 1819.8,-1516.1 4549.6,-2122.9 7886.2,-2122.9 1516.7,0 3336.5,303 4852.6,606.8 1819.8,606.1 3639.7,1213 5459.5,2425.9l0 -7582.4z"/>
  <path class="fil1" d="M10009 104943.3l3336.6 -909.9 303 0 0 0 303 0 303.8 0 0 -303 0 0 303.1 0 0 0 0 0 0 -303.8 303 0 0 0 0 0 0 -303 0 0 606.8 -910 1213 4852.7 -606.2 -303.1 -303.8 -303 0 0 0 0 -303 0 0 0 0 0 -303 0 0 0 0 0 -303.8 0 0 0 -303 0 0 0 -303.1 0 -303.8 0 -7279.3 2122.9 -303 0 -303 303 0 0 -303.9 0 0 0 -303 0 0 303.8 0 0 0 0 -303 0 0 0 0 303.1 0 0 -303.8 0 0 0 -303 909.9 -1213 -4852.6 606.2 606.1 303.8 0 0 0 0 0 0 303.8 303 0 0 0 0 0 303 0 0 0 0 0 303.8 0 303 0 0 -303.8 303 0 0 0 3033.6 -909.9 -3943.5 -1516.1 0 0 -303 0 0 0 0 0 0 0 -303 0 0 0 0 0 0 0 -303.8 0 0 -303.8 0 0 0 0 0 0 0 0 0 303.8 0 0 0 0 0 0 -303.1 0 0 0 0 0 0 0 0 0 0 0 0 0 0 0 0 0 -303 303 0 0 0 0 -303.8 606.8 -1212.9 -4246.5 6672.5 2729.8 3639.7 -4852.7 0 0 0 0 303.8 0 -303.8 0 0 0 -303.1 0 0 -303.8 -303 0 -8796.1 -2122.9 0 -303 -303 0 0 0 0 0 0 0 0 0 -303.8 0 0 0 0 0 0 0 0 0 0 0 0 0 -303 0 0 0 0 0 0 0 0 0 0 0 0 0 0 0 0 0 0 0 -303.1 303 0 0 0 0 0 0 0 0 0 0 0 0 0 0 -606.8 910 -303 -3942.7 9705.3 -5156.5 0 0 303.8 0 0 -303 0 0 303 0 0 0 303 -303.8 0 0 0 0 0 -303 303.8 0 0 0 0 -303 303 0 0 0 606.9 -910 606.1 5155.8 -606.1 -606.2 -303.8 0 0 -303.8 -303.1 0 0 0 0 0 0 0 0 0 0 0 0 0 -303 0 0 0 0 0 0 0 -303.8 0 0 303.8 -303 0 0 0 0 0 0 0 0 0 0 0 0 0 0 0 -2426.7 1213 606.8 3942.7 2729.7 909.9 0 0 0 0 0 0 0 0 303.1 0 0 0 0 0 0 0 0 0 0 0 0 0 0 0 303.8 0 0 0 0 0 0 0 0 0 0 0 0 0 0 0 0 0 0 0 303 0 0 0 0 0 0 0 0 -303 0 0 0 0 303 0 0 0 303.8 -909.9 303 909.9 0 0 606.8 1819.8 0 0 0 303 0 303.8 0 303 0 303.1 0 0 0 303.8 0 303 0 0 -303.8 303 0 303.8 0 303 -303 0 -303 303 0 303.9 -303.8 303 -3032.9 3639.6zm3336.6 -38216.5l0 0 0 -303 0 0 0 0 -303.8 0 0 -303.8 0 0 0 0 -303 0 0 -303 0 0 -303 0 0 0 -303.8 0 0 -303 -303.1 0 -7279.3 -2426.7 -303 -303.1 -303.8 0 0 0 -303.1 0 0 0 -303 0 0 0 0 0 -303.8 0 0 0 0 0 0 0 -303 0 0 0 0 0 -909.9 606.2 1212.9 -3335.9 10009.1 -3639.7 -5762.6 -1819.8 0 0 -303 -303.8 -303.8 0 0 0 -303 0 0 0 0 0 -303 0 0 0 0 0 -303.9 0 0 0 0 0 -303 0 0 303.8 -909.9 303.1 1516.8 -4246.5 303 909.9 0 0 303 303.8 0 0 0 0 0 303 0 0 303.8 0 0 0 0 0 303 303.1 0 0 303 0 0 0 303.8 303.8 0 0 10009.1 3335.8 -303.8 606.9 0 0 0 303 0 0 -303 303.8 0 0 -303 303 0 0 -303.8 0 0 303 -303.1 0 -303 0 -303.8 303.8 -303 0 -303 303 -303.8 0 -8492.3 3032.9 6066.4 2123.6 303 0 0 0 303 0 303.8 303 0 0 0 0 303 0 0 0 0 0 303 0 0 0 0 0 303.8 0 0 -303 0 0 910 -303.8 -1213.7 3639.7 -606.1 4246.4 -606.8 -606.8 0 -303 0 0 -303 0 0 -303 0 0 0 0 0 0 0 0 0 0 0 0 -303.8 0 0 0 0 0 -303.1 0 0 0 -303 0 0 0 0 0 0 0 0 0 0 0 -2729.7 606.1 -606.8 4246.5 2729.7 1213 0 303.8 0 0 0 0 0 0 0 0 0 0 0 0 303 0 0 0 0 0 0 0 0 0 0 0 0 0 303.8 0 0 0 0 0 0 0 0 0 0 0 0 0 0 0 0 0 0 0 303 0 0 0 0 0 0 0 0 0 0 -303.8 303.1 0 606.8 -606.2 -606.8 4852.7 -606.2 -1213 0 0 0 0 0 0 -303.8 -303.8 0 0 0 0 0 0 -303 -303 0 0 0 0 -303 0 0 -303 -303.8 0 0 0 -303.1 -303.8 -7886.1 -4549.6 0 0 0 0 -303 0 0 0 0 0 0 0 0 0 0 0 -303.1 0 0 -303.1 0 0 0 0 0 0 0 0 0 0 -303.8 0 0 0 0 0 0 0 0 0 0 0 0 0 0 0 0 0 0 0 0 0 -303 303.1 0 0 0 0 0 0 0 0 -606.8 606.8 303.8 -3942.7 10919 -2426.7 0 0 303 0 0 0 303.1 0 0 0 303.8 -303 0 0 0 0 303 0 0 0 0 -303.8 303 0 0 0 0 0 303.8 -303.1 0 0zm13041.9 -26994.3l-303 0 0 -303.1 0 0 0 0 0 -303 0 0 0 0 0 -303.8 0 0 -303.8 0 0 -303 0 0 -303 0 0 -303 -303 0 -5763.3 -5156.5 -303 -303 0 0 -303 -303.8 0 0 -303.8 0 0 0 0 0 -303.1 -303 0 0 0 0 0 0 -303 0 0 0 0 0 -303.8 0 -909.9 0 3336.5 -3639.7 0 910 0 303 0 0 0 0 0 0 0 303.8 0 0 0 0 303 303 0 0 0 0 0 303 303.8 0 0 0 303.1 303.8 0 0 6066.3 5459.5 303.1 -303.8 303 0 0 -303 0 0 303.8 0 0 -303.1 0 0 303 0 0 0 0 -303.8 0 0 303 0 0 0 0 -303 303.8 -303 0 0 303.1 -303.8 0 0 0 -303 303 0 0 -303 0 -303.8 0 0 303.8 -303.1 0 -303 0 0 0 -303.8 0 -303 303 -910 1819.8 3032.9 -5459.5 6369.4 0 0 -2122.9 3033.5 -303.8 -909.9 0 0 0 0 0 -303.8 0 0 0 0 0 -303 0 0 0 0 0 0 -303 0 0 0 0 0 0 0 -303 0 0 0 -303.8 0 0 0 0 0 0 0 0 0 0 0 0 0 0 0 0 0 -2729.8 -606.9 -2122.9 3336.6 1516.8 2426.7 0 0 303 0 0 0 0 0 0 0 0 0 0 0 0 303 0 0 0 0 0 0 0 0 303 0 0 0 0 0 0 0 0 0 0 0 0 0 0 0 0 0 0 0 303.8 0 0 0 0 0 0 0 0 0 0 0 303.1 0 0 0 0 0 909.9 0 -2426.7 3639.7 0 -909.9 -303 0 0 -303.1 0 0 0 0 0 -303.8 0 0 0 0 0 -303 0 0 -303 -303 0 0 0 -303.8 0 0 -303.8 0 0 -303 -5459.5 -7582.4 0 0 0 0 0 0 0 -303.8 0 0 0 0 -303 0 0 0 0 0 0 0 0 0 0 -303 0 0 0 0 0 0 -303 0 0 0 0 0 0 0 0 0 0 0 0 0 0 0 0 0 0 0 -303.8 0 0 0 0 0 0 0 0 0 0 0 -910 303 2123.6 -3335.9 10615.2 2426 303.8 0 0 0 303 0 0 0 303.1 0 0 0 0 0 303.8 0 0 0 303 0 0 0 303 0 0 0 0 0 303.8 0 303 0zm13951.8 -13951.8l303.8 -910 0 0 0 -303 0 0 0 0 0 -303.8 0 0 0 -303 0 0 0 -303 0 0 0 0 0 -303.8 0 0 0 -303 0 0 -3033.5 -7886.2 0 0 0 0 0 0 0 0 0 -303 0 0 0 0 0 0 0 0 -303.1 -303.1 0 0 0 0 0 0 0 0 0 0 0 0 0 0 0 -303.8 0 0 0 0 0 0 0 0 -303 0 0 0 0 0 0 0 0 0 -303.8 0 0 -303 -909.9 0 3639.6 -2122.9 6976.3 5762.6 -1213 -9099.1 3335.9 -1819.8 0 909.9 -303 0 0 0 0 0 0 303 0 0 0 0 0 0 0 303.8 0 0 0 0 303 0 0 0 0 303.1 0 0 0 0 0 0 0 0 0 303 0 0 0 0 0 0 303.8 0 0 0 0 0 0 0 0 303.8 0 0 0 0 0 0 4852.6 6672.5 0 0 303 303 0 0 0 0 303.8 303.8 0 0 0 0 0 0 303.1 303.1 0 0 0 0 303 0 0 0 0 303 303.8 0 606.1 303.8 -4245.8 2425.9 606.1 -1213 0 0 0 0 0 0 0 -303 0 0 0 0 0 0 0 -303.8 0 0 0 0 0 0 0 -303 0 0 -303 0 0 0 0 0 0 -303 0 0 0 0 0 0 0 0 0 0 0 0 0 0 0 0 0 0 0 0 -4246.5 -6066.4 1213.7 10312.1 -606.8 0 0 0 -303.1 0 0 0 -303.8 -303 0 0 -303 0 0 0 -303 0 0 -303 -303.8 0 0 0 -303 -303.9 -303 0 0 -303 -303.9 0 -5762.5 -4852.6 2426.7 6672.5 0 0 0 0 0 0 0 303 0 0 0 0 0 0 0 0 0 0 0 303.8 0 0 0 0 0 0 0 0 303 0 0 0 0 303.1 0 0 0 0 0 0 303 0 0 0 0 0 0 303 0 0 303.8 0 0 0 0 0 303 0 910 303.8 -3942.7 2122.9 606.1 0 -2729.7 2426.7 -606.1 -606.8 0 303 0 303.8 -303.8 0 0 303 0 303 -303.1 303.8 0 0 -303 303.1 0 303 -303.8 0 0 303.8 -303 0 0 303 -303 303 -303.8 0 0 303.8 -303 0 -303.1 303 0 0 -303.8 0 -303 303.1 -303 0 0 0 -303.8 0 -303 0 -303.1 0 -303.8 303.8 0 0 -303 -303.8 -303 0 -303.8 0 0 0 -303 0 0 0 -303 -303.1 -303.8 0 0 0 -303.1 -303 0 0 -303 -303.8 0 0 -303.8 -303 -303 0 0 -303 -303 -303.8 -303.8 0 -3639.7 -4549.6 0 0 0 -303.1 -303 0 0 -303 -303 0 0 0 0 0 -303.8 -303.8 0 0 0 0 0 0 -303.1 0 0 0 0 0 -303 0 -909.9 0 3942.7 -3335.8 -303.1 909.9 0 303 0 0 0 0 0 303 0 0 0 0 303.1 0 0 303.8 0 0 0 0 0 303.1 303 0 0 303 0 0 303.8 303.8 3335.9 3942.7 303.8 303 0 303.8 303 0 0 303 303 0 0 303 303.8 0 0 303.8 0 0 303 0 0 0 0 0 303 303.1 0 0 0 0 303.8 0 0 0 0 0 303.1 0 0 0 303 0 0 0 0 0 303.8 0 0 -303.1 303 0 0 0 0 0 303 -303.8 0 0 303.8 0 0 -303 303.1 0 0 0 0 -303 303 0 0 0 0 -303.8 303.8 0 0 0 0 -303 0 0 0 -303 303 0 0 0 0 -303.8 0 0 0 -303.1 0 0 0 0 0 -303 0 0 0 0 0 -303.8 0 0 0 0 0 -303 -303 0 0 0 0 -303 0 0 -303.8 -303.8 0 0 -303 -303.1 -3639.7 -4549.6 -303 -303 0 0 -303.8 -303.8 0 0 0 0 -303.1 -303 0 0 0 0 0 0 -303 0 0 0 0 0 -303.8 0 0 -303 0 0 -909.9 0 3639.6 -3033.6 0 910 0 0 0 0 0 303.8 0 0 0 0 0 303 0 0 0 0 0 303 0 0 303.8 303.8 0 0 0 0 303.1 303 0 303.1 5156.4 5763.2 0 303 303 0 0 303.1 0 0 303 0 0 303.8 0 0 303.8 0 0 0 0 0 0 303 303.1 0 0 0 0 0 303 0 0 0zm60358.2 -10919l303.1 0 0 -303.1 0 0 0 0 303 0 0 0 0 -303.8 0 0 0 0 303.8 -303 0 0 0 -303 0 0 303 -303.8 2729.7 -7279.3 0 -303.1 0 0 303.1 -303 0 -303.8 0 0 0 0 0 -303 0 0 0 -303 0 0 0 0 0 0 0 -303.8 0 0 -303.1 0 -303 -910 3335.9 1213.7 3033.5 10312.1 2122.9 -5762.6 0 0 303 -303.8 0 -303 0 0 0 -303.1 0 0 0 0 0 -303.8 0 0 0 0 0 -303 0 0 0 0 0 -303 0 0 -606.1 -909.9 4245.8 1819.8 -909.9 303.1 0 0 -303 0 0 0 0 0 -303.1 303 0 0 0 0 0 0 0 303.8 -303.8 0 0 0 0 303 0 0 -303 303 0 303.8 -3639.7 9705.3 -606.8 0 0 -303 -303 0 0 0 -303 -303 0 0 -303.8 -303.8 0 0 0 -303.1 -303 0 0 -303 0 -303.8 -303.1 -303 0 -303 0 -303.8 -303.8 -303 -2729.7 -8796.2 -2122.9 6066.4 0 303 -303 303.8 0 0 0 303.1 0 0 0 303 0 0 0 0 0 303.8 0 0 0 0 0 303 0 0 0 0 0 0 606.1 910 -4245.8 -1516.8 303 0 -3942.7 -606.2 910 -606.8 0 0 0 0 303 -303 0 0 0 0 0 0 0 0 0 0 0 0 0 -303.8 0 0 0 0 0 0 0 -303 0 0 0 -303 0 0 0 0 0 0 0 0 0 0 0 0 0 0 -606.8 -2729.8 -3942.7 -606.8 -1516.8 2426.7 0 0 0 0 0 0 0 0 0 0 0 0 0 303 0 0 0 0 0 0 0 0 0 303.1 -303 0 0 0 0 0 0 0 0 0 0 0 0 0 0 0 303 0 0 303.8 0 0 0 0 0 0 0 0 0 0 0 303 0 0 606.8 606.8 -4549.6 -606.8 910 -606.8 303 0 0 0 0 -303.1 0 0 303.8 0 0 0 0 0 0 -303 303 0 0 0 0 -303.8 303 0 0 -303 0 0 303.8 -303 4549.6 -7886.2 303.1 0 0 0 0 0 0 -303 0 0 0 0 0 0 0 0 0 0 0 -303.8 0 0 0 0 0 0 0 0 0 0 0 0 0 0 0 -303 0 0 0 0 0 0 0 0 0 0 0 0 0 0 0 0 0 0 0 0 0 -303.1 0 0 0 0 -606.9 -606.8 3639.7 606.8 2123.6 10919.1 0 0 0 303 0 0 303 303 0 0 0 303.8 0 0 0 303 0 0 303 0 0 303 0 0 0 0 303.8 303.8 0 0 0 303.1zm29117.3 17288.4l0 0 0 0 303 0 0 0 0 -303 303.1 0 0 0 0 0 303.8 0 0 0 0 -303.8 303 0 0 0 303 -303.1 0 0 5763.3 -5459.4 0 -303 303 0 0 -303.8 0 0 303 0 0 -303.1 0 0 0 0 0 -303 303.8 0 0 0 0 -303.8 0 0 0 0 0 -303 0 -909.9 3335.9 3639.6 -910 0 0 0 -303 0 0 0 0 0 -303 0 0 0 0 0 -303.8 0 0 303.1 0 0 -303 0 0 303.8 -303 0 0 0 -303.8 303 -5459.5 5459.4 0 0 -303 303.1 0 0 -303 303.8 0 0 0 0 0 303 -303.9 0 0 0 0 303 0 0 0 0 0 303.8 0 0 0 0 0 909.9 -3335.8 -3336.5 606.1 0 -909.9 -606.8 -303 -303.1 0 0 -303.1 -303 0 0 -303.8 -303.8 0 0 0 -303 -303 0 0 -303 0 0 0 -303.8 0 -303 -303 0 0 -303.1 0 -303.8 0 0 0 -303 303 -6066.4 -2426.7 3033.6 0 303 -303 0 0 303 0 0 0 303.8 -303 0 0 0 0 303 0 0 0 0 0 303.1 0 0 0 0 0 303.8 0 0 0 909.9 -3639.7 -3033.5 909.9 0 0 0 0 0 303.1 0 0 -303.1 0 0 303 0 0 0 0 0 0 0 303.8 -303 0 0 0 0 303 -303.8 0 0 303 -303 4549.6 -6066.4 303.8 -303 0 0 303.1 -303 0 0 0 -303.8 0 0 0 0 303 -303 0 0 0 0 0 -303.1 0 0 0 0 0 -303.8 0 0 -303 -909.9 3942.6 3033.5 303.9 303 303 303.1 303 303.8 303.8 303 303 303 0 303.8 303 606.1 0 303.9 303.8 303 0 303 0 303.8 -303.8 303 0 606.8 0 303.1 -303 303 -303 303.8 0 0 -303.8 303 0 303 -303 0 -303 0 -303.9 303.8 -303 0 0 0 -303 0 -303.8 303 -303 0 -303 -303 -303.8 0 -303.1 0 -606.8 0 0 4852.7 0 0 0 303 0 0 0 0 0 303.8 0 0 0 303 0 0 0 303 0 0 0 303.8 0 0 303.8 303 0 0 0 303.1 0 606.8zm16378.5 76129.9l0 303 0 0 0 0 0 0 303 303 0 0 0 0 0 0 303 303.8 0 0 0 0 303.8 0 0 303.1 303.1 0 303 0 6976.2 3336.5 303 0 0 0 303.8 0 0 303 303.1 0 0 0 0 0 303 0 0 0 0 0 303.8 0 0 0 0 0 303 0 0 0 909.9 -606.8 -2122.9 4549.6 -303.8 -909.9 0 0 0 0 0 -303 0 0 -303 0 0 0 0 -303.1 0 0 0 0 -303 0 0 0 -303.8 -303.8 0 0 -303 0 0 -303 -7279.4 -3032.8 -303 0 0 -303.8 -303.8 0 0 0 -303 0 0 0 0 0 -303 0 0 0 0 0 -303.8 0 0 0 0 0 -303.1 0 0 0 -909.9 303.8 2122.9 -4549.6 0 606.1 303.8 -1213 0 0 0 -303 0 0 303 -303.8 0 -303 0 0 303 -303 0 0 303.8 -303.8 0 0 0 0 303.1 -303.1 303 0 0 -303 303.8 0 0 0 303 0 5459.5 -2426.7 -3639.7 -909.9 -303 0 0 0 -303.8 0 0 0 -303.1 0 0 0 -303 0 0 0 0 0 -303.8 0 0 0 0 0 0 0 -303 0 0 0 -909.9 606.8 1212.9 -4853.3 606.8 909.9 0 0 0 0 303.1 303.8 0 0 0 0 0 0 0 303 303.8 0 0 0 0 0 303 0 0 303.1 303 0 303.8 0 0 0 7582.4 2123.6 303 0 0 0 303.8 0 0 0 303 0 0 0 303 0 0 0 0 0 303.8 0 0 0 0 0 303.1 0 0 0 0 0 909.9 -606.9 -1213 4852.7 -303.8 303.8 0 606.1 -303 303.8 -303 303 0 303.1 -303.8 303.8 -303 303 -303 303 -303.8 303.8 -303.1 0 -303 303 -303.8 0 -303 0 -606.8 0 -303 0 -303.1 0 -303.8 0 -303 -303 0 0 -303 -303.8 -303.8 0 0 -303 -303 0 0 -303 -303.1 -303.8 0 -303.1 -303.8 -303 0 -303.8 0 -303 -303 -303 0 -303.8 -4549.6 1819.8 0 0 0 0 -303 0 0 303.8 0 0 -303.8 0 0 0 -303 0 0 303 0 0 -303.1 0 0 0 -303.8 303 0 0 -303 0 -303 303.8zm-130724.8 1213l0 0 303 -303.1 0 0 303.8 0 0 -303.8 303 0 0 0 0 0 0 0 303.1 -303 0 0 0 0 0 -303 0 0 0 0 303.8 -909.9 2122.9 4549.6 -910 -303.8 0 0 -303 -303.1 0 0 0 0 0 0 -303.8 0 0 0 0 0 -303 0 0 0 -303 303.1 0 0 -303.8 0 0 0 -303.1 0 -6976.2 3336.5 -303 0 -303 303 0 0 -303.8 0 0 0 0 303.8 -303 0 0 0 0 0 0 303.1 -303.1 0 0 0 0 0 0 303 0 0 -303.8 909.9 -2122.9 -4549.6 910 303.8 0 0 303 0 0 303 0 0 303.8 0 0 0 0 0 303 0 0 0 0 -303 303 0 0 0 303.8 0 303.1 0 0 -303.8 7279.3 -3032.8zm-8492.3 -14558.7l-303.8 -2729.8 -3032.9 1819.8 3336.6 910zm3032.8 -13345.7l303.1 0 303.8 0 0 0 303 0 0 0 303 0 0 0 0 0 303.8 0 0 0 0 -303 303 0 0 0 0 0 0 0 606.9 -909.9 303 5156.4 -606.8 -909.9 -303.1 0 0 0 0 0 -303 0 0 -303.8 0 0 0 0 -303.8 0 0 0 -303 0 0 0 -303 0 0 0 -303.8 0 0 0 -8492.3 0 0 606.8 0 303 0 303.8 0 303 303 0 0 303.1 0 303.8 0 0 0 303 0 0 0 0 0 303 303.8 0 0 303.8 0 0 0 0 909.9 909.9 -3336.5 -909.9 0 -9402.9 2729.7 909.9 -303 303.8 -303.8 303 0 0 0 0 0 0 0 303.1 0 0 -303 0 0 0 0 303.8 0 0 0 303 0 0 0 0 0 303 0 0 0 1213.7 8189.2 -303.8zm-3336.5 -7885.4l303.8 -2426.8 -3639.7 606.9 3335.9 1819.8zm10312.9 -30634.1l1516.1 -2122.9 -3639.7 -909.9 2123.6 3032.8zm48225.6 -41553.1l-303.8 910 -303.1 0 0 303.8 0 0 0 0 0 303 0 0 0 0 0 303 0 0 0 0 0 303.8 0 0 0 303.1 0 303 0 0 2729.8 10312.8 -303.1 0 -303.8 0 0 303.1 -303 -303.1 -303 0 0 0 -303.8 0 0 0 -303 0 -303 -303.8 0 0 -303.8 0 -303.1 -303 -303 0 -303.8 -303 0 -303.8 -7279.3 -5459.5 1516.7 6369.4 0 303.8 0 0 303.1 303.1 0 0 0 303 0 0 0 303.8 0 0 303.8 0 0 0 0 0 0 303 303 0 0 0 0 0 909.9 606.8 -4246.5 910 606.8 -606.8 0 0 0 -303.1 0 0 0 0 0 -303.8 0 0 0 0 0 -303 0 0 0 -303 0 0 0 -303.8 0 0 0 -303 0 0 -2122.9 -7582.4 0 -303.8 0 -303 0 0 -303.8 -303 0 0 0 -303.8 0 0 0 0 -303 0 0 -303.1 0 0 0 0 -303 0 0 -303 0 0 -909.9 -303.8 3335.8 -909.9 8493 6369.4 -1516.8 -5762.6 0 -303 0 0 0 -303.8 -303 0 0 -303 0 0 0 -303.1 0 0 0 0 -303.8 0 0 -303.8 0 0 0 0 -303 0 0 0 -909.9 -606.1 4246.5 -1213.7zm7279.3 9403l0 303 0 0 0 303 0 303.8 0 0 0 303 0 0 303 0 0 0 0 303.1 0 0 0 0 303 0 0 303.8 0 0 910 606.1 -5155.8 606.8 606.2 -909.9 303.8 0 0 0 0 0 0 -303 0 0 0 0 0 -303.8 0 0 303 0 0 -303.1 0 0 0 -303 0 0 -303 -303.8 0 -303 -910 -7582.4 0 -303.8 0 -303 0 0 0 -303 0 0 0 -303.8 -303.8 0 0 0 0 -303 0 0 0 0 0 -303.1 -303 0 0 0 0 0 -909.9 -606.8 4852.6 -606.8 -606.1 606.8 0 303 0 0 0 0 0 0 0 303.8 0 0 -303.8 0 0 303.1 0 0 0 303 0 0 0 303.8 0 0 0 303 0 303 1213.7 7583.2zm8189.3 -606.8l303 0 303 303 0 0 303.8 0 303.1 303.8 303 0 0 0 303.8 0 303 303 303 0 0 0 303.8 0 303 0 303.1 0 303.8 0 303 0 0 0 303 -303 303.8 0 0 0 303 -303.8 0 0 303 0 0 -303 303.9 0 0 -303.1 0 0 0 -303.8 0 0 0 0 0 -303 0 0 0 0 0 0 0 0 0 0 0 -303 0 0 0 0 0 0 0 0 0 0 -303.9 0 0 -303.8 0 0 0 0 0 -303 -303 0 -303 -303.1 -303.8 0 -303 -303.8 -303 -303 -606.9 0 0 0 0 -303 -303 0 0 0 0 0 0 0 -303.8 0 0 0 -303 -303.8 -606.8 -303 -303 -303 -303.1 0 -303.8 -303.8 -303 -303.1 0 -303 -303 0 -303.8 -303.8 0 -303 -303 -303 0 0 0 -303.8 0 -303 0 -303.1 0 -303.8 0 -303 0 -303 0 -606.8 303 -303.1 0 -303.8 303.8 -303 303 -303 303 0 303.8 -303.8 303.1 -303 606.8 0 303 -303 606.8 0 303 0 606.9 0 606.1 0 0 0 303.8 0 0 0 303 0 0 0 303 0 0 0 303.9 0 303 0 0 0 303 0 303.8 0 0 303 303 0 303 0 303.8 0 0 3032.8 -606.8 -606.1 -303 0 0 -303.8 -303.8 0 -303 0 0 -303 -303 0 0 0 -303.9 0 -303 -303.1 0 0 -303 0 0 0 -303.8 0 -303 0 0 0 -303 0 -303.8 0 0 0 -303.1 0 -303 0 0 303.1 -303.8 0 0 0 0 0 -303 303 0 0 0 0 0 303.8 -303 0 0 303 0 0 0 0 0 303 0 0 303 303.8 0 0 0 0 0 303.1 303 0 0 0 0 303 303.8 0 303 303.8 303.1 0 303.8 303 303 303 303 0 303.8 0 0 0 0 0 0 0 0 0 0 303.8 0 0 0 0 606.1 0 303.9 303 303 0 303 303.1 303.8 0 0 303.8 303 303 303 0 0 0 303.8 303 0 0 0 303.8 303.1 0 0 303 0 0 303 303 0 0 0 303.8 0 303.1 0 0 303.8 303 0 0 0 303.8 0 303 0 303 -303.8 303.8 0 606.2 -303 303.8 0 303 -303.1 303 -303.8 303.8 -606.1 303 -303.8 303.1 -303 303.8 -606.9 0 -303 303 -606.8 0 -303 0 -606.8 303 -606.2 0 -303.8 0 0 0 -303 0 0 -303 -303 0 -303.8 0 0 0 -303 0 -303.1 0 0 0 -303.8 0 -303 -303 0 0 -303 0 -303.8 0 -303 -303.8 -910 -3032.9 910 606.8 303 0 303.8 303.1zm13344.9 -2729.8l2426.7 303 -606.8 -3335.8 -1819.8 3032.8zm24567.8 13345.7l-303 0 0 303 0 303 0 0 0 303.8 -303 0 0 0 0 303 0 0 0 0 0 303 0 0 0 0 0 303.8 0 0 303 910 -4246.5 -2426.7 909.9 -303 0 0 303.8 0 0 0 0 0 303.1 0 0 -303.9 0 0 0 0 303 0 0 -303 0 0 303.8 0 0 -303 0 -303.8 303 0 3942.7 -7279.3 -606.2 -303.1 -303.8 -303 -303 0 0 0 -303 -303.8 0 0 -303.8 0 0 0 -303 0 0 0 -303 0 0 -303 -303.8 0 0 0 0 0 -303.1 303 -1212.9 0 2425.9 -2425.9 8189.3 4549.6 -2122.9 2122.9 0 -606.8 -303 0 0 0 0 0 0 -303 0 0 0 0 0 0 -303.8 -303.1 0 0 0 0 0 0 -303.1 -303.8 0 0 -303 0 0 0 -909.9 -606.1 -3943.5 7279.4zm9099.1 1212.9l606.9 0 303 303 303.8 0 303 303.8 303 0 303.8 0 0 0 303 0 303.1 0 0 0 303.8 0 303 -303.8 0 0 303 0 0 -303 0 0 303.8 -303 0 0 0 -303.8 303 0 0 -303 0 0 0 -303 0 0 -303 -303.9 0 -303 0 0 0 -303 -303.8 0 0 -303.8 -303 0 0 -303 0 0 0 0 -303 0 0 0 0 0 0 0 -303.8 -303 0 0 0 0 0 0 -303.1 0 0 0 0 0 -2426.7 3032.8zm11222.8 16985.3l0 303 0 303.1 0 303.8 0 0 0 303 303 303 0 303.8 0 303 0 0 303 303 0 303.8 0 303.1 303.8 0 0 303 303 303.8 0 0 303 303 0 303 303.8 0 0 0 303.1 303.8 303 0 0 0 303.8 0 0 0 303 0 0 0 303 0 0 0 303.8 0 0 0 0 0 0 -303.8 0 0 0 0 303 0 0 0 0 0 0 0 0 0 0 -303 0 0 0 0 0 0 0 0 0 0 303.1 -303 0 0 0 -303.8 0 -303 0 -303.1 0 -303.8 -303.1 -606.1 0 -606.8 0 0 0 0 0 -303 0 0 0 0 0 -303.8 0 0 0 0 0 -606.2 0 -303.8 0 -606.1 0 -303.8 0 -303.1 0 -303 0 -303.8 0 -303 0 -303 303.1 -303.8 0 -303 303.8 0 0 -303.1 303 -303.8 303 0 0 -303 303.8 -303 606.2 0 303.8 0 303 -303.8 303 0 303.8 0 606.1 303.8 303.8 0 303.1 303 303 0 303.8 303 303 303.8 606.8 303.1 303 303 303.1 606.8 303.8 303 0 303.8 0 0 0 0 303 303 0 0 0 303.1 303 0 0 303.8 0 303 0 0 303.8 303 0 0 0 303.8 0 303 303 0 0 606.9 -2426.7 1516 0 -909.9 0 -303 0 0 0 -303 0 -303.8 0 0 0 -303.1 0 -303 0 0 0 -303.8 -303 0 0 -303 0 0 0 -303 -303 -303.8 0 0 0 -303.1 -303.8 0 0 -303 -303 0 0 -303.8 -303.1 0 0 0 -303.8 0 0 -303 -303 0 0 0 0 0 -303 0 0 0 -303.8 303 0 0 0 0 -303 0 0 303.8 0 0 0 0 0 303 -303 0 0 0 0 303.1 0 303.8 0 0 0 303 0 606.8 0 303 303 303.1 0 606.8 0 0 0 0 0 0 0 0 0 0 0 303 0 0 0 303.8 0 303 0 303 0 303.8 0 606.2 0 0 0 303.8 0 303 0 303 0 0 0 303.8 0 303.1 0 0 -303 303 0 0 0 303.8 0 0 -303.8 303 0 0 -303.1 303 0 0 0 303.8 -303 0 0 0 -606.8 303 -303 303.1 -303.8 0 -303.1 0 -606.8 0 -303 0 -606.8 0 -303 -303.1 -606.9 0 -303 -303 -303 -303.8 -606.8 -303 -303 -303 -303.8 -303.8 -303.1 -606.2 -303 -303.8 0 -303 -303.8 0 0 -303 0 0 0 -303.8 -303 0 0 -303 0 -303.1 -303 0 0 -303.8 0 -303 0 0 -303.8 -303 0 -303.8 0 -303 0 -303 2123.6 -2426.8 0 1213 0 303.8zm6065.6 11222.1l0 0 -303.1 0 0 303 -303 0 0 0 0 0 -303.8 303.8 0 0 0 0 0 0 -303 303 0 0 0 0 0 303 0 0 -303 910 -2123.6 -4549.7 606.8 303.8 303 303.1 0 0 0 0 303.8 0 0 0 0 0 303 0 0 0 0 -303.1 303.1 0 0 0 303.8 0 0 0 303 -303.8 303 0 6673.2 -3639.6 303 0 0 -303 303.1 0 0 0 303.8 -303.1 0 0 0 0 303 0 0 -303.8 0 0 0 0 0 0 0 -303 0 0 303 0 0 -909.9 2426.7 4246.5 -909.9 -303.8 0 0 -303.1 0 0 0 0 0 -303.8 0 0 0 0 0 0 0 -303 0 0 0 -303 0 0 303.8 -303.8 0 0 0 -303 0 -6976.2 3942.7zm2426.7 5762.5l0 0 0 0 0 303.8 0 0 0 0 0 303.1 0 0 0 0 303 606.8 303.8 303 303 303 303 303.8 303.8 303 303 303.1 303.1 303.8 303.8 0 303 303 606.8 0 303 0 606.9 0 303 0 303 0 606.8 -303 303 0 606.9 -303.8 303 0 303.8 -303.1 606.1 -303 303.8 -303.8 0 -303 303.1 -303 303 -606.8 0 -303.1 0 -303.8 303.8 -606.1 0 -303.8 0 -606.2 -303.8 -303.8 0 -606.1 -303 -303.8 0 -303 0 0 0 0 0 0 0 -303 -303.1 0 0 0 0 -303.8 0 0 0 0 0 -303.1 -303.8 0 0 0 0 -303 -7885.5 3335.9 0 303.8 0 0 0 303 0 0 303.1 0 0 303zm-3639.7 -3639.6l909.9 303.8 0 303 0 0 303.1 0 0 0 0 0 303.8 0 0 0 0 0 303 0 0 0 303 0 0 -303 303.8 0 0 0 303 0 7279.4 -3033.6 0 0 303 -303 303.8 0 0 0 303 0 0 -303 0 0 0 0 303 0 0 0 0 -303.8 0 0 0 0 303.8 0 0 -303 303.1 -910 1819.8 4852.7 0 303.8 303.1 303 0 606.8 303.8 303 0 303 0 303.8 0 303.1 0 303 0 303.8 303 303 -303 303 0 303.8 0 303.1 0 303 0 303.8 0 303 -303.8 303 0 303.8 -303.1 303 0 303.1 -303 303.8 0 303 -303.8 303 -303 303.8 0 303 -303 0 -303.8 303 -303 303.9 -303.1 0 -303.8 303 -303 0 -303 303 -303.8 0 -303 0 -303.1 303.8 -303.8 0 -303 0 -303 0 -303.8 0 -303 0 -303 0 -303.8 0 -303.1 0 -303 0 -303.8 0 -303 0 -303 -303.8 -303.8 0 -303.1 0 -303 -303 -303.8 0 -303 -303 -303 -303.9 -303.8 -303 -303 -303 0 -303.8 -303.1 -303 -303.8 -303 -303 -303.8 -303 -303.1 0 -606.8 -303.8 -303 -303 -606.8 0 -303 -1819.8 -4246.5zm16681.6 17288.4l-303 -606.2 0 -303.8 -303.1 -303 0 -606.8 -303.8 -303 -303 -303 -303 -303.8 -303.8 0 -606.1 -303.1 -303.8 -303 -303.1 0 -606.8 0 -303 -303.8 -606.8 0 -303 0 -606.9 303.8 -303 0 -606.8 303 -303 0 -606.9 303.1 -303 303.8 -303 303 -303.8 303 -303 303.8 -303 303 -303.8 303 0 606.9 -303.1 303 0 303.8 0 606.1 0 303.8 0 303 303.1 606.9 0 303 303.8 606.8 303 303 0 303.1 303 303.8 303.8 303 303 303 606.8 0 303.1 303.8 303 0 606.8 303 303 0 606.9 0 303 0 606.8 0 606.8 -303 303 0 606.9 -303.8 303 -303 303 0 303.8 -303 303 -303.8 303 -606.2 303.8 -303.8 303.1 -303 0 -303 303 -606.9 0 -303 0 -303.8 0 -606.1 0 -303.8zm-11222.1 2123.6l0 -303.8 0 -606.2 0 -303.8 0 -303 0 -303 0 -303.8 0 -303 0 -303.1 0 -303.8 0 -303 303.1 -606.8 0 -303 0 -303 303.8 0 0 -303.8 303 -303.1 0 -303 303 -303.8 303.8 -303 303 -303 0 -303.8 303.1 0 303.8 -303.1 303 -303 303 0 303.8 -303.8 303 0 303 -303 303.8 0 303.1 0 303 -303 303.8 0 303 0 303 0 0 0 303.8 0 303.1 0 303 0 303.8 0 303 0 303 0 303.8 0 0 0 303 303 303.1 0 303.8 0 303 0 0 303 606.8 0 303 303.8 303 303 303.8 303.1 303.1 303.8 303 303 303.8 303 303 303.8 0 303 303 303.1 303.8 303.8 0 303 303.1 303 0 606.8 303 303 0 303.8 0 606.2 0 303.8 0 303 0 303 0 303.8 0 303 0 303.1 0 606.8 0 303 0 303.8 -303 303 0 303.1 0 303.8 -303.1 303 0 303 -303.8 303.8 0 303 -303 0 -303 303 0 303.8 -303.8 303.1 -303 303 -303.1 0 -303.8 303.8 -303 0 -303 303 -303.8 303 -303 0 -303 0 -303.8 303.8 -303.1 0 -303 0 -303.8 0 -303 303 -303 0 -303.8 0 -606.2 0 -303.8 -303 -303 0 -303 0 -303.8 0 -303 -303.8 -303.1 0 -303.8 0 -303 -303 -303 -303 -303.8 0 -303 -303.8 -303 -303 -303.8 0 0 -303.1 -303.1 -303.8 -303 0 -303.8 -303 0 -303 -303 -303.8 0 -303 -303 -303 0 -303.8 -303.8 -303.1 0 -303 0 -303.8 -303.1 -303 0 -303zm11222.1 17288.4l0 -303.8 303.8 0 0 -303 0 0 303 -303.1 0 -303.8 0 0 0 -303 0 0 0 -303 0 -303.8 303 0 0 -303 0 0 0 -606.8 -303 -606.2 0 -303.8 0 -303 -303 -606.8 -303.8 -303 0 -303.1 -303 -303.8 -303.1 -303 -606.8 -303 -303 0 -303.8 -303.8 -606.1 0 -303.8 -303 -606.2 0 -303.8 0 -606.1 0 -606.8 0 -303.1 0 -606.8 303 -303 0 -606.8 303.8 -303.1 303 -303.8 303 -303 303.8 -303 303.1 0 303 -303.8 606.8 0 303 -303 606.8 0 303.1 0 606.8 0 0 0 303 0 0 0 303.8 0 0 0 303 0 0 0 303 0 0 0 303.8 0 0 0 0 303 303.1 0 0 0 303 2123.6 0 303 0 303 0 0 0 303.8 0 0 0 303.1 0 0 0 0 0 303 -303 0 0 0 0 303.8 0 0 0 0 0 0 -303.1 606.1 -606.8 0 3639.7 -6369.4 -303 0 -606.8 0 -303.1 -303 0 0 -303.8 0 -303 0 -303 0 -303.8 0 -303 0 -303.1 0 -303.8 -303 0 0 -303 0 -303 0 -303.8 0 0 0 -303 0 -303 0 -303.8 303 -303.1 0 -303 0 -303.8 0 -303 0 -303 0 -303.8 303 -303 0 -303.1 0 -303.8 0 0 303.8 -303 0 -303 303 -303.8 0 0 303.1 -303 303.8 -606.9 0 -303 303 0 303 -303 303.8 -303.8 606.1 -303 303.8 -303 303.1 0 303 -303.8 606.8 0 303 0 303.8 -303.1 606.2 0 303.8 0 303 0 303 0 606.8 0 303.1 0 303.8 0 303 303.1 303 0 303.8 303.8 303 0 303 0 303.8 303 303.1 303 303 0 303.8 303.8 303 303 303 303 0 303.8 303.8 0 303.1 303.1 0 303 303 303.8 0 303 303.8 303 0 303.8 303 303.1 0 303 0 303.8 0 303 303 303 0 303.8 0 606.2 0 303.8 0 303 0 303 0 0 0 303.8 0 0 0 303 0 0 0 303 0 303.8 -303 0 0 303.1 0 303 0 0 0 303.8 0 303 0 0 -303 606.8 -2729.8 0 606.2 -606.8 0 -303zm-8795.3 6672.5l-303.8 0 -303.1 0 0 0 -303 0 0 0 -303.8 0 0 0 0 0 -303 0 0 0 0 0 -303 0 0 303 0 0 0 0 -910 606.9 910 -4852.7 606.1 606.2 0 303.8 0 0 0 0 0 0 303.8 303 0 0 0 0 0 0 303 0 0 0 303.1 303 0 0 303.8 0 0 0 303 0 7582.3 1516.8 303.8 0 303.1 0 0 0 303 0 0 0 303.8 0 0 0 0 0 303 0 0 0 0 0 303 -303.1 0 0 0 0 0 0 910 -606.8 -910 4852.7 -606.1 -606.2 0 -303.8 0 0 0 0 0 0 -303.8 -303 0 0 0 0 0 0 -303 0 0 0 -303.1 -303 0 0 -303.8 0 0 0 -303 0 -7582.3 -1516.8zm2729.7 6672.5l0 606.9 0 303 0 303.8 0 303 0 303 303 303.8 0 303 0 0 0 303.1 303 0 0 303.8 303.8 0 0 303 303.1 0 0 0 303 0 0 303 303.8 0 303 0 0 0 303 0 0 -303 303.8 0 0 0 303 -303 0 0 303.1 0 0 -303.8 0 0 303.8 -303.1 0 -303 0 0 0 -303.8 0 0 0 0 0 0 0 0 0 -303 0 0 0 0 0 0 0 -303 0 0 0 0 303 -303.8 0 0 -3942.7 -910z"/>
  <path class="fil2" d="M60823.9 119767.8l-3517.2 11434.9c-84.5,-63.8 -284.4,-199.8 -599.7,-410.5 -515.1,-346.8 -851.9,-622.7 -1009.5,-828.3 -157.6,-205 -336,-622.7 -535.9,-1253.8l-1877.1 -5914.5 -2586.4 8407c-199.9,-147.6 -457.1,-325.9 -773.1,-536.6 -441.3,-294.4 -735.8,-546.6 -882.7,-757.3 -147.6,-209.9 -315.9,-609.8 -505.1,-1198.7l-2097.8 -6529.2c-252.3,-788.8 -460,-1327.7 -622.7,-1616.3 -163.3,-289.5 -396.9,-555.3 -702.1,-796.8l2428.8 0c-20.8,126.2 -31.5,194.2 -31.5,205 0,168.4 58,431.3 173.4,788.8l2587.2 8043 2065.5 -6623.7c189.9,-609.8 284.5,-1077.6 284.5,-1403.6 0,-379 -221.4,-715 -662.7,-1009.5l2302.7 0c-31.5,136.9 -47.2,241.5 -47.2,315.3 0,273.7 78.8,657 236.4,1151.3l2413 7523 2019 -6403.1c220.6,-704.4 331,-1187.9 331,-1450.9 0,-546.6 -299.5,-925.6 -899.2,-1135.6l2508.4 0zm4116.1 10961.3l-3154.6 0c357.5,-189.2 584,-499.4 678.5,-930.7 42.3,-189.1 63,-588.3 63,-1198.7l0 -6702.6c0,-610.4 -20.8,-1009.5 -63,-1198.7 -94.5,-431.3 -321,-741.5 -678.5,-930.7l3154.6 0c-357.6,189.2 -583.2,499.4 -678.6,930.7 -41.5,189.1 -63,588.3 -63,1198.7l0 6702.6c0,610.4 21.5,1009.5 63,1198.7 95.3,431.3 321,741.5 678.6,930.7zm9415.8 -2208.2l-883.4 2208.2 -6797.1 0c356.8,-189.2 583.1,-499.4 677.7,-930.7 42.3,-189.1 63,-588.3 63,-1198.7l0 -6702.6c0,-610.4 -20.8,-1009.5 -63,-1198.7 -94.6,-431.3 -321,-741.5 -677.7,-930.7l3153.8 0c-357.5,189.2 -583.1,499.4 -677.7,930.7 -42.3,189.1 -63,588.3 -63,1198.7l0 7475.6c778.1,115.4 1524.7,173.4 2239,173.4 599.6,0 1117.7,-73.8 1553.9,-220.7 436.4,-147.6 927.9,-415.5 1474.5,-804.6zm12081.1 2208.2l-3454.1 0c399.8,-241.5 599.7,-462.9 599.7,-662.1 0,-126.8 -94.5,-436.3 -283.7,-930.6l-978 -2539.2 -4211.4 0 -946.5 2539.2c-126.1,336 -189.1,620.5 -189.1,851.1 0,284.5 199.8,531.6 599.7,741.6l-3060 0c378.3,-241.5 657,-494.4 836.1,-757.3 178.3,-262.2 415.5,-756.6 709.3,-1482.4l2933.9 -7318c126.2,-315.2 189.2,-567.5 189.2,-757.3 0,-262.2 -168.4,-477.9 -504.4,-646.3l2649.5 0 3501.4 8721.6c263,662.7 504.3,1146.4 725,1450.8 221.4,305.2 515.9,568.2 883.4,788.9zm-4542.4 -5204.4l-1687.3 -4353.3 -1703.1 4353.3 3390.4 0zm13375 -5756.9l-4085.3 6166.6 0 2838.7c0,505.1 42.3,867.6 126.1,1088.3 105.3,263 341.8,552.4 710,867.7l-3217.7 0c347.5,-241.5 562.5,-557.4 647,-946.5 41.5,-178.4 63,-572.5 63,-1182.9l0 -2665.3 -2870.9 -4621.2c-283.7,-452.1 -515.1,-770.2 -693.5,-954.3 -179.2,-183.4 -442.1,-381.1 -788.8,-591.1l1892.9 -63c252.2,0 425.6,36.6 520.2,110.3 94.5,73.8 257.9,299.5 489.3,677.8l2507.7 4101 2097.1 -3186.1c210.6,-315.2 315.9,-583.2 315.9,-803.9 0,-336.7 -199.8,-615.4 -599.7,-836.1l2886.6 0zm10882.5 10961.3l-3454 0c399.8,-241.5 599,-462.9 599,-662.1 0,-126.8 -94.6,-436.3 -283.7,-930.6l-978 -2539.2 -4210.7 0 -946.5 2539.2c-126.1,336 -189.1,620.5 -189.1,851.1 0,284.5 199.9,531.6 599,741.6l-3059.3 0c378.3,-241.5 657,-494.4 836.1,-757.3 178.4,-262.2 414.9,-756.6 709.3,-1482.4l2933.9 -7318c126.1,-315.2 189.1,-567.5 189.1,-757.3 0,-262.2 -168.4,-477.9 -505.1,-646.3l2650.2 0 3501.3 8721.6c262.2,662.7 504.4,1146.4 725,1450.8 220.7,305.2 515.1,568.2 883.4,788.9zm-4542.4 -5204.4l-1687.3 -4353.3 -1703.7 4353.3 3391 0zm16261 5204.4l-3154.6 0c357.6,-199.9 584,-510.2 678.6,-930.7 41.5,-199.2 63,-599 63,-1198.7l0 -3153.9 -5993.3 0 0 3153.9c0,610.4 20.9,1009.5 63.1,1198.7 94.5,431.3 320.3,741.5 677.7,930.7l-3153.9 0c357.5,-189.2 583.2,-499.4 677.8,-930.7 42.3,-189.1 63,-588.3 63,-1198.7l0 -6702.6c0,-610.4 -20.8,-1009.5 -63,-1198.7 -94.6,-431.3 -320.3,-741.5 -677.8,-930.7l3153.9 0c-357.5,189.2 -583.2,499.4 -677.7,930.7 -42.3,189.1 -63.1,588.3 -63.1,1198.7l0 2271.2 5993.3 0 0 -2271.2c0,-599.7 -21.5,-999.5 -63,-1198.7 -94.6,-420.5 -321,-730.8 -678.6,-930.7l3154.6 0c-357.5,199.9 -584,510.2 -678.5,930.7 -41.5,199.2 -63,599 -63,1198.7l0 6702.6c0,599.7 21.5,999.5 63,1198.7 94.5,420.5 321,730.8 678.5,930.7z"/>
  <path class="fil2" d="M40643.1 143159.9c0,606.8 -303.8,1212.9 -606.8,1819.8 -303.1,606.9 -910,910 -1516.8,1213 -606.1,303.8 -1516.1,606.8 -2729.7,606.8l-3639.7 0c606.8,-303 606.8,-606.8 909.9,-909.9 0,-303 0,-606.8 0,-1213l0 -6673.2c0,-606.1 0,-909.9 0,-1212.9 -303,-606.9 -303,-910 -909.9,-910l2426.7 0c0,0 0,0 303,0 303.8,0 303.8,0 606.9,0l606.8 0c909.9,0 1819.8,0 2122.9,303 909.9,606.9 1516.7,1213.7 1516.7,2123.6 0,606.2 -303.8,1213 -1213.7,1819.8 0,0 -303,0 -606.1,303 606.1,0 909.9,303 1212.9,303 910,606.9 1516.8,1516.8 1516.8,2426.8zm-2729.7 -4549.7c0,-606.8 -303.8,-909.9 -606.9,-1212.9 -303,-303.8 -909.9,-606.8 -1516.7,-606.8 -303,0 -910,0 -1213,303l0 3033.5c303,0 303,0 606.8,0 910,0 1516.1,0 1819.8,-303.8 606.2,-303 910,-909.9 910,-1213zm909.9 4852.7c0,-606.2 -303.8,-1213 -909.9,-1516.1 -303.8,-606.8 -1213.7,-606.8 -2123.6,-606.8 -303,0 -910,0 -1213,0l0 3942.7c606.8,303.8 910,303.8 1516.8,303.8 909.9,0 1516.1,-303.8 2122.9,-606.9 303,-303 606.8,-909.9 606.8,-1516.7z"/>
  <path class="fil2" d="M52775.1 146799.5l-3639.7 0c606.8,-303 606.8,-606.8 606.8,-606.8 0,-303 0,-606.1 -303.8,-1213l-909.9 -2426.7 -4245.8 0 -910 2426.7c0,606.9 0,606.9 0,910 0,303 0,606.8 606.2,909.9l-3032.9 0c303,-303 606.8,-606.8 606.8,-909.9 303.1,-303 606.2,-606.8 910,-1516.8l2729.7 -7279.3c303,-303 303,-303 303,-606.2 0,-303.8 -303,-606.8 -606.8,-606.8l2729.7 0 3336.6 8492.3c303,910 606.8,1213.7 909.9,1516.8 0,303 303,606.8 910,909.9zm-4549.6 -5156.4l-1819.8 -4549.6 -1516.8 4549.6 3336.6 0z"/>
  <path class="fil2" d="M64300.9 135880.5c-303.8,303 -606.8,303 -606.8,606.8 0,303.1 -303,606.2 -303,1213l0 9402.3c-606.9,0 -1516.8,-606.2 -2123.6,-1516.1l-5762.6 -7279.4 0 6369.4c0,606.2 0,910 0,1213 303,303 606.8,606.8 909.9,909.9l-3032.8 0c303,-303 606.1,-606.8 606.1,-909.9 303.8,-303 303.8,-606.8 303.8,-1213l0 -6976.2c0,-606.8 0,-909.9 -303.8,-1213 0,-303.8 -303,-303.8 -606.1,-606.8l2425.9 0c0,0 0,303 303.8,606.8l6065.6 7885.5 0 -6672.5c0,-606.8 0,-909.9 0,-1213 -303,-303.8 -303,-303.8 -606.1,-606.8l2729.7 0z"/>
  <path class="fil2" d="M76129.9 146496.4c0,0 -303.8,0 -606.8,0 -1213,303 -2426.8,606.2 -3336.6,606.2 -1819.8,0 -3032.8,-606.2 -4245.8,-1213 -1516.8,-1213 -2426.7,-2729.7 -2426.7,-4549.6 0,-1819.8 909.9,-3336.6 2426.7,-4549.6 1213,-910 2729.7,-1213 4245.8,-1213 909.9,0 1819.8,0 2729.7,303l0 1819.8c-606.1,-606.8 -1516.1,-909.9 -3032.8,-909.9 -1213,0 -2426.7,303 -3336.6,1212.9 -606.1,910 -1212.9,1819.8 -1212.9,3033.6 0,1516 606.8,2425.9 1516.7,3335.8 910,910 2122.9,1516.8 3335.9,1516.8 909.9,0 1516.8,-303 2123.6,-303l0 -2426.7c0,-606.9 0,-910 0,-1213 0,-303.8 -303.8,-606.8 -606.8,-909.9l2426.7 0c0,303 0,606.1 0,1212.9l0 3336.6c0,303 0,606.1 0,909.9z"/>
  <path class="fil2" d="M87958.7 146799.5c-606.8,0 -1213.7,0 -1819.8,0 -606.9,0 -910,-303 -1516.8,-606.8 -303,-303 -910,-1213 -2122.9,-2729.7 -303.8,-303 -606.8,-910 -1213.7,-1819.8 -303,-303 -303,-303 -606.1,-606.1l2425.9 -3033.6c606.8,-606.1 606.8,-1212.9 606.8,-1516.1 0,-303.8 0,-303.8 -303,-606.8l3032.9 0 -3942.7 4852.6c1212.9,1819.8 2122.9,2729.8 2425.9,3033.6 303.8,606.1 606.8,909.9 909.9,1212.9 303.9,606.9 1213.7,1213 2123.6,1819.8zm-6673.2 0l-3335.8 0c606.1,-303 606.1,-606.8 909.9,-909.9 0,-303 0,-606.8 0,-1213l0 -6673.2c0,-606.1 0,-909.9 0,-1212.9 -303.8,-606.9 -303.8,-910 -909.9,-910l3335.8 0c-303,0 -606.1,303 -606.1,910 -303.8,303 -303.8,606.8 -303.8,1212.9l0 6673.2c0,606.2 0,910 303.8,1213 0,303 303,606.8 606.1,909.9z"/>
  <path class="fil2" d="M99483.9 146799.5l-3335.9 0c303,-303 606.2,-606.8 606.2,-606.8 0,-303 -303.1,-606.1 -303.1,-1213l-909.9 -2426.7 -4246.5 0 -909.9 2426.7c-303.1,606.9 -303.1,606.9 -303.1,910 0,303 303.1,606.8 606.9,909.9l-3033.6 0c303.8,-303 606.9,-606.8 910,-909.9 0,-303 303.8,-606.8 606.8,-1516.8l3032.8 -7279.3c0,-303 0,-303 0,-606.2 0,-303.8 0,-606.8 -303,-606.8l2426.7 0 3639.7 8492.3c303,910 303,1213.7 606.2,1516.8 303.8,303 606.8,606.8 909.9,909.9zm-4549.6 -5156.4l-1516.1 -4549.6 -1819.8 4549.6 3335.9 0z"/>
  <path class="fil2" d="M107976.9 144372.8l-910 2426.7 -6673.2 0c303.8,-303 606.9,-606.8 606.9,-909.9 0,-303 0,-606.8 0,-1213l0 -6673.2c0,-606.1 0,-909.9 0,-1212.9 0,-606.9 -303.1,-910 -606.9,-910l3033.6 0c-303.8,0 -606.9,303 -606.9,910 0,303 0,606.8 0,1212.9l0 7279.4c606.9,303.8 1516.8,303.8 2123,303.8 606.8,0 1213.7,0 1516.7,-303.8 606.8,0 910,-303.1 1516.8,-910z"/>
  <path class="fil2" d="M120108.9 146799.5l-3336.6 0c303.8,-303 606.8,-606.8 606.8,-606.8 0,-303 -303,-606.1 -303,-1213l-909.9 -2426.7 -4246.5 0 -910 2426.7c-303,606.9 -303,606.9 -303,910 0,303 303,606.8 606.2,909.9l-3032.9 0c303,-303 606.8,-606.8 910,-909.9 0,-303 303,-606.8 606.8,-1516.8l3032.8 -7279.3c0,-303 0,-303 0,-606.2 0,-303.8 0,-606.8 -303,-606.8l2425.9 0 3639.7 8492.3c303.8,910 606.8,1213.7 606.8,1516.8 303,303 606.8,606.8 910,909.9zm-4549.6 -5156.4l-1516.8 -4549.6 -1819.8 4549.6 3336.6 0z"/>
  <path class="fil2" d="M131937.7 135880.5c-303,303 -606.8,303 -909.9,606.8 0,303.1 0,606.2 0,1213l0 9402.3c-910,0 -1516.8,-606.2 -2426.7,-1516.1l-5762.6 -7279.4 0 6369.4c0,606.2 303,910 303,1213 0,303 303.8,606.8 606.8,909.9l-3032.8 0c606.1,-303 606.1,-606.8 909.9,-909.9 0,-303 0,-606.8 0,-1213l0 -6976.2c0,-606.8 0,-909.9 0,-1213 -303.8,-303.8 -303.8,-303.8 -606.8,-606.8l2122.9 0c303.8,0 303.8,303 606.8,606.8l6066.4 7885.5 0 -6672.5c0,-606.8 0,-909.9 -303.8,-1213 0,-303.8 -303,-303.8 -606.1,-606.8l3032.8 0z"/>
  <path class="fil3 str0" d="M40643.1 143159.9c0,606.8 -303.8,1212.9 -606.8,1819.8 -303.1,606.9 -910,910 -1516.8,1213 -606.1,303.8 -1516.1,606.8 -2729.7,606.8l-3639.7 0c606.8,-303 606.8,-606.8 909.9,-909.9 0,-303 0,-606.8 0,-1213l0 -6673.2c0,-606.1 0,-909.9 0,-1212.9 -303,-606.9 -303,-910 -909.9,-910l2426.7 0c0,0 0,0 303,0 303.8,0 303.8,0 606.9,0l606.8 0c909.9,0 1819.8,0 2122.9,303 909.9,606.9 1516.7,1213.7 1516.7,2123.6 0,606.2 -303.8,1213 -1213.7,1819.8 0,0 -303,0 -606.1,303 606.1,0 909.9,303 1212.9,303 910,606.9 1516.8,1516.8 1516.8,2426.8zm-2729.7 -4549.7c0,-606.8 -303.8,-909.9 -606.9,-1212.9 -303,-303.8 -909.9,-606.8 -1516.7,-606.8 -303,0 -910,0 -1213,303l0 3033.5c303,0 303,0 606.8,0 910,0 1516.1,0 1819.8,-303.8 606.2,-303 910,-909.9 910,-1213zm909.9 4852.7c0,-606.2 -303.8,-1213 -909.9,-1516.1 -303.8,-606.8 -1213.7,-606.8 -2123.6,-606.8 -303,0 -910,0 -1213,0l0 3942.7c606.8,303.8 910,303.8 1516.8,303.8 909.9,0 1516.1,-303.8 2122.9,-606.9 303,-303 606.8,-909.9 606.8,-1516.7z"/>
  <path class="fil3 str0" d="M52775.1 146799.5l-3639.7 0c606.8,-303 606.8,-606.8 606.8,-606.8 0,-303 0,-606.1 -303.8,-1213l-909.9 -2426.7 -4245.8 0 -910 2426.7c0,606.9 0,606.9 0,910 0,303 0,606.8 606.2,909.9l-3032.9 0c303,-303 606.8,-606.8 606.8,-909.9 303.1,-303 606.2,-606.8 910,-1516.8l2729.7 -7279.3c303,-303 303,-303 303,-606.2 0,-303.8 -303,-606.8 -606.8,-606.8l2729.7 0 3336.6 8492.3c303,910 606.8,1213.7 909.9,1516.8 0,303 303,606.8 910,909.9zm-4549.6 -5156.4l-1819.8 -4549.6 -1516.8 4549.6 3336.6 0z"/>
  <path class="fil3 str0" d="M64300.9 135880.5c-303.8,303 -606.8,303 -606.8,606.8 0,303.1 -303,606.2 -303,1213l0 9402.3c-606.9,0 -1516.8,-606.2 -2123.6,-1516.1l-5762.6 -7279.4 0 6369.4c0,606.2 0,910 0,1213 303,303 606.8,606.8 909.9,909.9l-3032.8 0c303,-303 606.1,-606.8 606.1,-909.9 303.8,-303 303.8,-606.8 303.8,-1213l0 -6976.2c0,-606.8 0,-909.9 -303.8,-1213 0,-303.8 -303,-303.8 -606.1,-606.8l2425.9 0c0,0 0,303 303.8,606.8l6065.6 7885.5 0 -6672.5c0,-606.8 0,-909.9 0,-1213 -303,-303.8 -303,-303.8 -606.1,-606.8l2729.7 0z"/>
  <path class="fil3 str0" d="M76129.9 146496.4c0,0 -303.8,0 -606.8,0 -1213,303 -2426.8,606.2 -3336.6,606.2 -1819.8,0 -3032.8,-606.2 -4245.8,-1213 -1516.8,-1213 -2426.7,-2729.7 -2426.7,-4549.6 0,-1819.8 909.9,-3336.6 2426.7,-4549.6 1213,-910 2729.7,-1213 4245.8,-1213 909.9,0 1819.8,0 2729.7,303l0 1819.8c-606.1,-606.8 -1516.1,-909.9 -3032.8,-909.9 -1213,0 -2426.7,303 -3336.6,1212.9 -606.1,910 -1212.9,1819.8 -1212.9,3033.6 0,1516 606.8,2425.9 1516.7,3335.8 910,910 2122.9,1516.8 3335.9,1516.8 909.9,0 1516.8,-303 2123.6,-303l0 -2426.7c0,-606.9 0,-910 0,-1213 0,-303.8 -303.8,-606.8 -606.8,-909.9l2426.7 0c0,303 0,606.1 0,1212.9l0 3336.6c0,303 0,606.1 0,909.9z"/>
  <path class="fil3 str0" d="M87958.7 146799.5c-606.8,0 -1213.7,0 -1819.8,0 -606.9,0 -910,-303 -1516.8,-606.8 -303,-303 -910,-1213 -2122.9,-2729.7 -303.8,-303 -606.8,-910 -1213.7,-1819.8 -303,-303 -303,-303 -606.1,-606.1l2425.9 -3033.6c606.8,-606.1 606.8,-1212.9 606.8,-1516.1 0,-303.8 0,-303.8 -303,-606.8l3032.9 0 -3942.7 4852.6c1212.9,1819.8 2122.9,2729.8 2425.9,3033.6 303.8,606.1 606.8,909.9 909.9,1212.9 303.9,606.9 1213.7,1213 2123.6,1819.8zm-6673.2 0l-3335.8 0c606.1,-303 606.1,-606.8 909.9,-909.9 0,-303 0,-606.8 0,-1213l0 -6673.2c0,-606.1 0,-909.9 0,-1212.9 -303.8,-606.9 -303.8,-910 -909.9,-910l3335.8 0c-303,0 -606.1,303 -606.1,910 -303.8,303 -303.8,606.8 -303.8,1212.9l0 6673.2c0,606.2 0,910 303.8,1213 0,303 303,606.8 606.1,909.9z"/>
  <path class="fil3 str0" d="M99483.9 146799.5l-3335.9 0c303,-303 606.2,-606.8 606.2,-606.8 0,-303 -303.1,-606.1 -303.1,-1213l-909.9 -2426.7 -4246.5 0 -909.9 2426.7c-303.1,606.9 -303.1,606.9 -303.1,910 0,303 303.1,606.8 606.9,909.9l-3033.6 0c303.8,-303 606.9,-606.8 910,-909.9 0,-303 303.8,-606.8 606.8,-1516.8l3032.8 -7279.3c0,-303 0,-303 0,-606.2 0,-303.8 0,-606.8 -303,-606.8l2426.7 0 3639.7 8492.3c303,910 303,1213.7 606.2,1516.8 303.8,303 606.8,606.8 909.9,909.9zm-4549.6 -5156.4l-1516.1 -4549.6 -1819.8 4549.6 3335.9 0z"/>
  <path class="fil3 str0" d="M107976.9 144372.8l-910 2426.7 -6673.2 0c303.8,-303 606.9,-606.8 606.9,-909.9 0,-303 0,-606.8 0,-1213l0 -6673.2c0,-606.1 0,-909.9 0,-1212.9 0,-606.9 -303.1,-910 -606.9,-910l3033.6 0c-303.8,0 -606.9,303 -606.9,910 0,303 0,606.8 0,1212.9l0 7279.4c606.9,303.8 1516.8,303.8 2123,303.8 606.8,0 1213.7,0 1516.7,-303.8 606.8,0 910,-303.1 1516.8,-910z"/>
  <path class="fil3 str0" d="M120108.9 146799.5l-3336.6 0c303.8,-303 606.8,-606.8 606.8,-606.8 0,-303 -303,-606.1 -303,-1213l-909.9 -2426.7 -4246.5 0 -910 2426.7c-303,606.9 -303,606.9 -303,910 0,303 303,606.8 606.2,909.9l-3032.9 0c303,-303 606.8,-606.8 910,-909.9 0,-303 303,-606.8 606.8,-1516.8l3032.8 -7279.3c0,-303 0,-303 0,-606.2 0,-303.8 0,-606.8 -303,-606.8l2425.9 0 3639.7 8492.3c303.8,910 606.8,1213.7 606.8,1516.8 303,303 606.8,606.8 910,909.9zm-4549.6 -5156.4l-1516.8 -4549.6 -1819.8 4549.6 3336.6 0z"/>
  <path class="fil3 str0" d="M131937.7 135880.5c-303,303 -606.8,303 -909.9,606.8 0,303.1 0,606.2 0,1213l0 9402.3c-910,0 -1516.8,-606.2 -2426.7,-1516.1l-5762.6 -7279.4 0 6369.4c0,606.2 303,910 303,1213 0,303 303.8,606.8 606.8,909.9l-3032.8 0c606.1,-303 606.1,-606.8 909.9,-909.9 0,-303 0,-606.8 0,-1213l0 -6976.2c0,-606.8 0,-909.9 0,-1213 -303.8,-303.8 -303.8,-303.8 -606.8,-606.8l2122.9 0c303.8,0 303.8,303 606.8,606.8l6066.4 7885.5 0 -6672.5c0,-606.8 0,-909.9 -303.8,-1213 0,-303.8 -303,-303.8 -606.1,-606.8l3032.8 0z"/>
 </g>
</svg>
